# xmcd CD database file
#
# Track frame offsets:
#	150
#	23311
#	44487
#	67585
#	86194
#	103695
#	122558
#	142079
#	160841
#	174720
#	195861
#	211938
#	233403
#	247759
#	268496
#	281515
#	301210
#
# Disc length: 4313 seconds
#
# Revision: 0
# Processed by: cddbd v1.5.2PL0 Copyright (c) Steve Scherf et al.
# Submitted via: CDex 1.70beta2
#
DISCID=dd10d711
DTITLE=Alan Jackson - Good Time
DYEAR=2008
DGENRE=Country
TTITLE0=Good Time
TTITLE1=Small Town Southern Man
TTITLE2=I Wish  Could Back Up 
TTITLE3=Country Boy
TTITLE4=Right Where I Want To
TTITLE5=1976
TTITLE6=When The Love Factors High
TTITLE7=Long Long Way
TTITLE8=Sissy's Song
TTITLE9=I Still Like Bologna 
TTITLE10=Never Loved Before With Martina McBride
TTITLE11=Nothing LeftTo Do
TTITLE12=Listen To Your Senses
TTITLE13=This Time
TTITLE14=Laid Back And Low Key
TTITLE15=If You Want To Make Me Happy
TTITLE16=If Jesus Walked The World Today
EXTD=YEAR: 2008
EXTT0=
EXTT1=
EXTT2=
EXTT3=
EXTT4=
EXTT5=
EXTT6=
EXTT7=
EXTT8=
EXTT9=
EXTT10=
EXTT11=
EXTT12=
EXTT13=
EXTT14=
EXTT15=
EXTT16=
PLAYORDER=
